<svg width="200" height="47" viewBox="0 0 200 47" fill="none" xmlns="http://www.w3.org/2000/svg">
<g clip-path="url(#clip0)">
<path d="M35.3 41.3H0V46.8H35.3V41.3Z" fill="#90292A"/>
<path fill-rule="evenodd" clip-rule="evenodd" d="M0 31.4V0.299951H41.9L48.4 19.6L55.7 0.299951H70V31.4H60.7V5.29995L51.4 31.4H44.1L35.3 5.29995V31.4H0ZM27.4 25.9V5.59995H10V12.8H23.8V18.1H10V25.7999H27.4V25.9ZM72.7 31.4V0.299951H114.4C117.2 0.299951 119.3 0.399951 120.8 0.499951C122.3 0.699951 123.8 1.19995 125.3 1.99995C126.8 2.79995 128 3.79995 128.8 5.19995C129.6 6.49995 130 7.99995 130 9.69995C130 13.6 127.9 16.4 123.7 17.9L132 31.5H121.2L115.2 19.2999H110.1V31.5H72.7V31.4ZM100.2 25.9V5.59995H82.7V12.8H96.4V18.1H82.7V25.7999H100.2V25.9ZM110.2 14.1H114.5C118.4 14.1 120.3 12.6 120.3 9.59995C120.3 8.49995 120 7.69995 119.4 6.99995C118.8 6.29995 118.2 5.89995 117.4 5.59995C116.7 5.39995 115.6 5.19995 114.1 5.19995H110.2V14.1ZM160.1 25.7999C156.8 31.0999 152.7 32 147.8 32C142.6 32 138.6 30.5999 135.5 27.7999C132.4 25 131 21.2 131 16.5C131 11.3 132.5 7.29995 135.5 4.29995C138.5 1.29995 142.9 -0.200049 148.7 -0.200049C158 -0.200049 164 3.29995 164.3 11.5H155.3C154.7 7.39995 152.5 5.29995 148.9 5.29995C146.6 5.29995 144.9 6.09995 143.5 7.59995C142.2 9.09995 141.5 12 141.5 16.2C141.5 19.9 142.1 22.6 143.5 24.1C144.8 25.6 146.7 26.5 149.2 26.5C153.2 26.5 155.2 24.4 155.3 20.2H148.5V14.8H164.2C164.2 14.9 165.6 27.5 160 32.2C160.7 26.5 160.1 25.7999 160.1 25.7999ZM171.2 27.7999C168.4 25.0999 167.1 21.1 167.1 15.8C167.1 5.09995 172.6 -0.300049 183.5 -0.300049C188.8 -0.300049 192.9 0.999951 195.7 3.79995C198.5 6.49995 199.9 10.5 199.9 15.8C199.9 26.6 194.5 31.9 183.5 31.9C178.2 31.9 174 30.5999 171.2 27.7999ZM179 7.29995C178 8.69995 177.6 11.6 177.6 15.8C177.6 20 178 22.7 179 24.2C180 25.7 181.4 26.5 183.5 26.5C185.6 26.5 187.1 25.7999 188 24.4C189 23 189.4 20.2 189.4 15.9C189.4 11.7 188.9 8.89995 188 7.39995C187.1 5.99995 185.6 5.29995 183.5 5.29995C181.5 5.19995 180 5.89995 179 7.29995Z" fill="#37332F"/>
</g>
<defs>
<clipPath id="clip0">
<rect width="200" height="47" fill="white"/>
</clipPath>
</defs>
</svg>
